<svg xmlns="http://www.w3.org/2000/svg" width="103" height="80" viewBox="0 0 103 80" fill="none"><path fill-rule="evenodd" clip-rule="evenodd" d="M7.984 56H10.38V43.2H7.984V56ZM16.767 55.808H18.913V47.732L27.946 56V43.392H25.806V51.33L16.767 43.2V55.808ZM32.845 52.708C34.013 53.618 35.415 54.144 36.918 54.144C38.382 54.144 39.409 53.64 39.409 52.527C39.409 51.557 38.754 51.177 37.607 50.752L35.75 50.107C34.038 49.499 32.736 48.611 32.736 46.57C32.736 44.387 34.707 43.2 37.064 43.2C38.508 43.2 39.824 43.563 40.852 44.206V46.371C39.783 45.581 38.613 45.037 37.11 45.037C35.816 45.037 34.849 45.52 34.849 46.527C34.849 47.437 35.456 47.801 36.525 48.167L38.594 48.893C40.599 49.598 41.519 50.691 41.519 52.489C41.519 54.751 39.529 56 36.918 56C35.202 56 33.743 55.52 32.845 54.914V52.708ZM47.109 56H49.504V43.2H47.109V56ZM60.74 54.063C63.44 54.063 64.883 52.331 64.883 49.597C64.883 46.843 63.439 45.117 60.74 45.117H58.07V54.063H60.74V54.063ZM55.89 43.2H60.82C64.615 43.2 67.069 45.7 67.069 49.597C67.069 53.497 64.615 56 60.82 56H55.89V43.2ZM79.047 43.2V45.117H73.25V48.197H78.449V50.092H73.249V54.063H79.047V56H71.062V43.2H79.047ZM87.549 48.996H89.926C91.333 48.996 92.126 48.224 92.126 47.037C92.126 45.85 91.333 45.077 89.926 45.077H87.549V48.997V48.996ZM87.549 50.806V56H85.434V43.2H89.966C92.55 43.2 94.222 44.531 94.222 47.037C94.222 49.18 93.294 50.411 91.317 50.727L95.814 56H93.408L89.054 50.807H87.55L87.549 50.806ZM7.147 30.59C8.084 30.247 8.814 29.218 8.814 27.803C8.814 25.445 7.147 24.223 4.48 24.223H0V37.386H4.896C7.563 37.386 9.23 36.078 9.23 33.613C9.23 32.219 8.355 30.997 7.147 30.59ZM2.104 29.754V26.153H4.46C5.94 26.153 6.731 26.689 6.731 27.932C6.731 29.175 5.939 29.754 4.46 29.754H2.104ZM2.104 31.598H4.854C6.314 31.598 7.105 32.326 7.105 33.527C7.105 34.706 6.313 35.457 4.855 35.457H2.105V31.597L2.104 31.598ZM19.005 37.6C22.068 37.6 24.131 35.756 24.131 32.155V24.223H21.964V31.897C21.964 34.427 20.922 35.607 19.005 35.607C17.088 35.607 16.047 34.427 16.047 31.897V24.223H13.88V32.133C13.88 35.756 15.963 37.6 19.005 37.6V37.6ZM29.233 36.442C30.129 37.086 31.588 37.6 33.296 37.6C35.901 37.6 37.88 36.27 37.88 33.87C37.88 31.962 36.964 30.804 34.963 30.054L32.901 29.282C31.838 28.897 31.234 28.511 31.234 27.546C31.234 26.474 32.192 25.96 33.484 25.96C34.984 25.96 36.151 26.538 37.214 27.375V25.08C36.193 24.395 34.88 24.009 33.442 24.009C31.088 24.009 29.129 25.274 29.129 27.589C29.129 29.754 30.421 30.697 32.129 31.34L33.984 32.026C35.13 32.476 35.776 32.884 35.776 33.913C35.776 35.092 34.755 35.628 33.296 35.628C31.796 35.628 30.4 35.07 29.233 34.106V36.442V36.442ZM45.623 24.223H43.457V37.385H45.623V24.223ZM51.805 37.369H53.893V28.806L62.681 37.573V24.203H60.599V32.62L51.805 24V37.369V37.369ZM76.222 24.226V26.197H70.596V29.365H75.641V31.314H70.596V35.397H76.222V37.389H68.472V24.226H76.222ZM81.267 36.433C82.163 37.077 83.621 37.591 85.33 37.591C87.934 37.591 89.914 36.262 89.914 33.861C89.914 31.953 88.997 30.796 86.997 30.045L84.934 29.274C83.871 28.888 83.267 28.502 83.267 27.537C83.267 26.465 84.225 25.951 85.517 25.951C87.017 25.951 88.184 26.53 89.247 27.366V25.072C88.226 24.386 86.913 24 85.475 24C83.121 24 81.162 25.265 81.162 27.58C81.162 29.745 82.454 30.688 84.162 31.331L86.017 32.017C87.163 32.467 87.809 32.875 87.809 33.904C87.809 35.083 86.789 35.619 85.329 35.619C83.829 35.619 82.433 35.062 81.267 34.097V36.433V36.433ZM94.353 36.433C95.249 37.077 96.708 37.591 98.416 37.591C101.021 37.591 103 36.262 103 33.861C103 31.953 102.083 30.796 100.083 30.045L98.02 29.274C96.958 28.888 96.353 28.502 96.353 27.537C96.353 26.465 97.312 25.951 98.603 25.951C100.103 25.951 101.271 26.53 102.333 27.366V25.072C101.313 24.386 100 24 98.562 24C96.207 24 94.249 25.265 94.249 27.58C94.249 29.745 95.541 30.688 97.249 31.331L99.104 32.017C100.25 32.467 100.896 32.875 100.896 33.904C100.896 35.083 99.875 35.619 98.416 35.619C96.916 35.619 95.52 35.062 94.353 34.097V36.433V36.433Z" fill="#BBBBBB"></path></svg>