<svg xmlns="http://www.w3.org/2000/svg" width="122" height="80" viewBox="0 0 122 80" fill="none"><path d="M11.7776 26.983H14.4493C16.0764 26.7427 17.7381 26.9539 19.2538 27.5936C21.1554 28.7402 22.5347 30.5861 23.0974 32.7375C23.4958 33.8649 23.4958 33.8649 24.4567 33.4656H25.2067V24.5402H0.0592948V26.1139H1.0905C1.53862 26.1108 1.98174 26.2083 2.38731 26.3994C2.79288 26.5904 3.15059 26.8701 3.43416 27.2178C4.39506 28.768 4.55911 30.5061 4.55911 39.5489C4.55911 49.1555 4.34818 51.5043 3.43416 52.7021C3.20851 53.0101 2.91637 53.263 2.57953 53.4419C2.2427 53.6209 1.86989 53.7213 1.48892 53.7356C0.0592948 53.994 0.0592948 53.9705 0.0592948 54.6047C-0.0197649 54.8167 -0.0197649 55.0502 0.0592948 55.2623H15.9258C16.0308 55.0549 16.0856 54.8255 16.0856 54.5929C16.0856 54.3603 16.0308 54.131 15.9258 53.9235C15.5415 53.8164 15.1499 53.7378 14.754 53.6886C14.3258 53.6376 13.9025 53.5512 13.4884 53.4303C12.8955 52.9965 12.4258 52.4151 12.1258 51.7437C11.8257 51.0722 11.7057 50.3339 11.7776 49.6017C11.5432 48.0515 11.426 45.2095 11.426 42.8607V41.0052H12.3635C13.5315 40.9694 14.6987 41.0959 15.8321 41.381C16.375 41.7173 16.8372 42.1695 17.1856 42.7054C17.534 43.2414 17.7601 43.8478 17.8476 44.4814L18.0586 45.2095H19.4882V34.8044H18.1757L17.9648 35.8144C17.8761 36.4623 17.6369 37.0804 17.2665 37.6189C16.8961 38.1573 16.4048 38.6012 15.8321 38.9148C15.2775 39.0802 14.6932 39.1203 14.1212 39.0322H11.426V36.4955C11.426 33.8649 11.5666 28.3218 11.6604 27.4527L11.7776 26.983ZM121.461 45.6088C120.353 43.8219 118.625 42.5085 116.609 41.9212C115.064 41.4371 113.636 40.6374 112.414 39.5724C112.139 39.306 111.934 38.9762 111.815 38.6118C111.697 38.2475 111.669 37.8596 111.734 37.482C111.736 36.7414 112.031 36.0318 112.555 35.509C112.909 35.1367 113.359 34.8679 113.854 34.7313C114.349 34.5948 114.872 34.5957 115.367 34.7339C116.392 35.0266 117.318 35.5915 118.048 36.3689C118.779 37.1462 119.286 38.1071 119.515 39.1497C119.89 40.2066 119.937 40.2066 120.617 39.9248L121.039 39.7603V33.9119L120.734 33.7709C118.427 32.9588 115.979 32.6232 113.539 32.7845C111.438 32.8378 109.432 33.6754 107.914 35.1332C107.226 35.7789 106.687 36.5675 106.335 37.4439C105.983 38.3202 105.826 39.2631 105.875 40.2066C105.888 41.6491 106.46 43.0301 107.469 44.0586C108.584 45.1578 109.953 45.9646 111.453 46.4074C115.086 47.8402 116.141 48.7562 116.141 50.4238C116.156 51.1271 115.933 51.8147 115.507 52.3739C115.081 52.933 114.478 53.3304 113.797 53.5007C112.979 53.6809 112.131 53.6809 111.313 53.5007C110.241 53.084 109.285 52.4168 108.522 51.5548C107.76 50.6928 107.214 49.6609 106.93 48.5448L106.625 47.7932H106.203C106.002 47.8082 105.804 47.8558 105.618 47.9341H105.383V54.6047H105.782C107.365 55.1325 108.999 55.4946 110.656 55.6851H113C114.016 55.7598 115.038 55.6646 116.023 55.4032C117.274 55.1719 118.443 54.6166 119.413 53.7925C120.383 52.9684 121.122 51.9042 121.554 50.7057C121.834 50.0362 121.977 49.3175 121.976 48.5918C122.069 47.5693 121.891 46.5405 121.461 45.6088V45.6088ZM99.3834 33.4656C97.979 32.8747 96.4658 32.588 94.9431 32.6244C93.4203 32.6609 91.9225 33.0196 90.5478 33.677C89.2557 34.3104 88.1104 35.2083 87.186 36.3128C86.2615 37.4173 85.5785 38.7038 85.1808 40.0892C84.6739 41.6005 84.4591 43.1948 84.5481 44.7867C84.5313 45.6529 84.6019 46.5185 84.759 47.3704C85.1375 49.4651 86.1465 51.3935 87.6505 52.8966C89.1546 54.3997 91.0816 55.4056 93.1727 55.779C94.5345 55.951 95.9124 55.951 97.2741 55.779C98.6872 55.5294 100.04 55.0112 101.258 54.2523C102.266 53.6859 103.12 52.8792 103.743 51.9036C103.703 51.7505 103.632 51.6071 103.536 51.4819C103.439 51.3568 103.318 51.2526 103.18 51.1754C102.913 51.2725 102.66 51.4069 102.43 51.5747C101.264 52.3447 99.8879 52.7306 98.4928 52.6786C97.5668 52.7414 96.6385 52.5969 95.7751 52.2557C94.9117 51.9144 94.1348 51.385 93.5008 50.7057C93.0104 50.2491 92.6056 49.7082 92.3056 49.1085C91.5773 47.6483 91.1849 46.0431 91.1572 44.4109V43.4949H104.141V43.0251C104.17 42.5558 104.17 42.0852 104.141 41.6159C104.136 39.9574 103.694 38.3297 102.858 36.8982C102.022 35.4667 100.824 34.2824 99.3834 33.4656V33.4656ZM92.8446 41.5924H91.204V40.2066C91.7431 36.6599 93.079 34.546 94.7195 34.546C96.3601 34.546 97.0632 36.6365 97.3679 40.465V41.5454H95.9617L92.8446 41.5924ZM59.1428 32.6905C58.333 32.659 57.528 32.8285 56.7992 33.1837C55.2152 33.9547 53.9358 35.2369 53.1665 36.8244L52.8618 37.3881V32.6905H52.7447C52.4634 32.6905 43.7919 34.4286 43.5107 34.546C43.2294 34.6635 43.3232 34.687 43.3232 35.1097C43.3232 35.5325 43.3232 35.603 43.5107 35.6265L44.4247 35.8144C44.6807 35.8207 44.9319 35.8853 45.1593 36.0033C45.3867 36.1213 45.5843 36.2896 45.7371 36.4955C46.323 37.2706 46.4402 38.6329 46.4402 44.4344C46.556 47.0462 46.4462 49.6631 46.1121 52.2559C46.0335 52.6468 45.8357 53.0037 45.546 53.2771C45.2563 53.5506 44.8891 53.7272 44.495 53.7826L43.6982 53.947H43.3935V54.6047C43.3085 54.8237 43.3085 55.0667 43.3935 55.2858H56.4945V54.6047C56.54 54.3799 56.54 54.1483 56.4945 53.9235C55.7057 53.8927 54.9213 53.7905 54.1509 53.6182C53.7313 53.3982 53.3881 53.0561 53.1663 52.6368C52.9446 52.2176 52.8548 51.7408 52.9087 51.2694C52.7212 49.9071 52.6275 45.9142 52.6744 42.8607C52.7212 39.8073 52.6744 39.6194 52.9322 39.408C53.7164 38.8054 54.6869 38.4978 55.6742 38.539C56.6049 38.5593 57.5187 38.7923 58.346 39.2201C58.6328 39.3797 58.9404 39.4983 59.26 39.5724C59.26 39.5724 61.6037 33.8884 61.6037 33.63C61.3038 33.2807 60.9217 33.0119 60.492 32.8479C60.0623 32.6838 59.5986 32.6297 59.1428 32.6905V32.6905ZM43.3466 42.5554C43.2648 40.877 42.784 39.2424 41.9442 37.7879C41.1044 36.3335 39.9299 35.1012 38.5187 34.1937C36.8416 33.287 34.9756 32.787 33.0707 32.734C31.1659 32.6809 29.2751 33.0763 27.5504 33.8884C25.1118 35.1771 23.2705 37.3678 22.4178 39.9952C21.5369 42.9369 21.5369 46.0729 22.4178 49.0145C22.8795 50.6222 23.7426 52.0854 24.9255 53.2658C26.3987 54.7065 28.2983 55.6295 30.3393 55.8965C31.6495 56.0063 32.9665 56.0063 34.2767 55.8965C34.7588 55.823 35.2362 55.721 35.7063 55.5911C37.6139 55.0563 39.3302 53.9881 40.6542 52.5115C41.9782 51.0349 42.8552 49.2109 43.1825 47.253C43.4165 45.6986 43.4716 44.1224 43.3466 42.5554V42.5554ZM33.597 54.2993C31.2533 55.0039 29.4956 52.7256 28.9097 47.9341C28.6945 45.4255 28.6945 42.9031 28.9097 40.3945C29.3784 36.5425 30.5737 34.593 32.4252 34.593C32.7987 34.5698 33.1724 34.6366 33.5149 34.7878C33.8574 34.939 34.1588 35.1702 34.3938 35.4621C35.9641 37.0358 36.7375 40.1596 36.7375 44.8572C36.9325 47.5158 36.5155 50.1837 35.5188 52.6552C35.0787 53.376 34.3977 53.9169 33.597 54.1819V54.2993V54.2993ZM75.7828 33.1603C75.1215 33.075 74.452 33.075 73.7907 33.1603C72.5212 33.1592 71.2664 33.4315 70.1111 33.9588L69.3846 34.2642V29.1673C69.5116 27.4472 69.5116 25.7201 69.3846 24C69.1034 24 60.1506 25.7146 60.01 25.7851C59.9409 25.9585 59.9409 26.1519 60.01 26.3253C60.01 26.8185 60.01 26.7951 61.0646 27.0299C61.3608 27.0965 61.6452 27.2073 61.9084 27.3588C62.3658 27.7899 62.6703 28.359 62.7755 28.9794C63.0424 30.7669 63.1287 32.5768 63.0333 34.3816V55.0039L63.6661 55.1449C64.6036 55.3563 67.2519 55.8025 68.119 55.8965C69.8506 56.0345 71.5904 56.0345 73.322 55.8965C75.2439 55.6997 77.0759 54.9811 78.6205 53.8181C80.165 52.6551 81.3637 51.0917 82.0872 49.2964C82.5186 48.1442 82.8174 46.9464 82.9778 45.7262C83.1173 44.0735 83.0623 42.4101 82.8138 40.7703C82.5623 38.9322 81.7528 37.2161 80.4951 35.8547C79.2373 34.4934 77.5922 33.5527 75.7828 33.1603V33.1603ZM69.6424 53.9C69.6424 53.5947 69.4081 43.307 69.4549 39.1966V35.9788L70.1346 35.8144C70.5932 35.7485 71.0588 35.7485 71.5173 35.8144C72.0245 35.7627 72.5346 35.8781 72.9704 36.1432C73.8456 36.7486 74.5724 37.545 75.0961 38.4726C75.6198 39.4002 75.9267 40.4348 75.9937 41.4984C76.1645 43.2088 76.1645 44.9319 75.9937 46.6423C75.8534 49.1281 74.8977 51.4979 73.2751 53.3833C72.8145 53.8217 72.2361 54.1156 71.6111 54.2288C71.1381 54.3113 70.6545 54.3113 70.1815 54.2288C69.7362 54.2288 69.7362 54.0879 69.7362 53.9H69.6424Z" fill="#C6C6C6"></path></svg>