<svg xmlns="http://www.w3.org/2000/svg" width="224" height="80" viewBox="0 0 224 80" fill="none"><path fill-rule="evenodd" clip-rule="evenodd" d="M30.7734 19.0001V52.958H22.4513V31.9061L17.2096 40.4306H21.0891V48.156H12.2051L9.48421 52.6764H0L22.7113 19.0001H30.7734" fill="#D0D0D0"></path><path fill-rule="evenodd" clip-rule="evenodd" d="M32.0947 25.7825L32.0552 59H40.3796V32.9867H43.5414C43.5414 32.9867 47.4245 32.9076 47.4245 36.9512C47.4245 40.99 43.9416 40.7936 43.9416 40.7936H41.7011V48.1559H46.944C46.944 48.1559 56.2677 48.634 55.8675 36.7104C55.4842 25.35 43.1017 25.7825 43.1017 25.7825H32.0947" fill="#D0D0D0"></path><path fill-rule="evenodd" clip-rule="evenodd" d="M213.21 44.7446L216.175 44.2929C216.302 44.8668 216.556 45.3053 216.944 45.6036C217.329 45.902 217.868 46.0529 218.564 46.0529C219.33 46.0529 219.904 45.9127 220.289 45.6288C220.551 45.4347 220.68 45.1687 220.68 44.8428C220.68 44.6164 220.608 44.4295 220.468 44.2821C220.321 44.1419 219.99 44.0125 219.48 43.8939C217.095 43.3692 215.583 42.8887 214.943 42.4538C214.06 41.85 213.618 41.0101 213.618 39.9354C213.618 38.9697 213.999 38.1538 214.765 37.4972C215.529 36.8359 216.714 36.5052 218.32 36.5052C219.85 36.5052 220.989 36.7568 221.733 37.2528C222.476 37.7524 222.986 38.4881 223.266 39.4657L220.479 39.9785C220.36 39.5448 220.134 39.2105 219.801 38.9805C219.466 38.7468 218.992 38.6318 218.374 38.6318C217.595 38.6318 217.038 38.7397 216.7 38.9589C216.477 39.1135 216.366 39.3147 216.366 39.558C216.366 39.7712 216.464 39.9461 216.66 40.0947C216.926 40.2912 217.845 40.568 219.422 40.9274C220.995 41.2832 222.095 41.7218 222.719 42.2417C223.337 42.7701 223.647 43.5033 223.647 44.4391C223.647 45.4634 223.22 46.3464 222.361 47.0833C221.506 47.8201 220.242 48.1855 218.564 48.1855C217.041 48.1855 215.838 47.8764 214.947 47.2594C214.061 46.646 213.483 45.8049 213.21 44.7446V44.7446ZM76.6473 47.934H73.2566L71.9087 44.4295H65.7421L64.4709 47.934H61.1665L67.175 32.5083H70.4686L76.6473 47.934V47.934ZM70.9107 41.832L68.7841 36.1074L66.7006 41.832H70.9107V41.832ZM76.1608 44.7446L79.1261 44.2929C79.2531 44.8668 79.5071 45.3053 79.8953 45.6036C80.2799 45.902 80.8191 46.0529 81.5164 46.0529C82.2808 46.0529 82.8558 45.9127 83.2404 45.6288C83.5016 45.4347 83.631 45.1687 83.631 44.8428C83.631 44.6164 83.5591 44.4295 83.419 44.2821C83.2716 44.1419 82.9409 44.0125 82.4305 43.8939C80.0463 43.3692 78.5343 42.8887 77.8945 42.4538C77.0115 41.85 76.5694 41.0101 76.5694 39.9354C76.5694 38.9697 76.9504 38.1538 77.716 37.4972C78.4804 36.8359 79.6653 36.5052 81.2707 36.5052C82.8007 36.5052 83.9401 36.7568 84.6842 37.2528C85.427 37.7524 85.9374 38.4881 86.2165 39.4657L83.4297 39.9785C83.3111 39.5448 83.0847 39.2105 82.7516 38.9805C82.4173 38.7468 81.9429 38.6318 81.3247 38.6318C80.5459 38.6318 79.9888 38.7397 79.6509 38.9589C79.4281 39.1135 79.3178 39.3147 79.3178 39.558C79.3178 39.7712 79.4149 39.9461 79.6114 40.0947C79.8774 40.2912 80.7975 40.568 82.3742 40.9274C83.9461 41.2832 85.046 41.7218 85.6714 42.2417C86.2896 42.7701 86.5975 43.5033 86.5975 44.4391C86.5975 45.4634 86.1698 46.3464 85.312 47.0833C84.4565 47.8201 83.1937 48.1855 81.5164 48.1855C79.9924 48.1855 78.7895 47.8764 77.8981 47.2594C77.0115 46.646 76.434 45.8049 76.1608 44.7446V44.7446ZM87.0708 44.7446L90.0373 44.2929C90.1631 44.8668 90.4171 45.3053 90.8053 45.6036C91.1911 45.902 91.729 46.0529 92.4263 46.0529C93.1907 46.0529 93.7658 45.9127 94.1504 45.6288C94.4128 45.4347 94.541 45.1687 94.541 44.8428C94.541 44.6164 94.4691 44.4295 94.3289 44.2821C94.1815 44.1419 93.8521 44.0125 93.3417 43.8939C90.9574 43.3692 89.4454 42.8887 88.8056 42.4538C87.9214 41.85 87.4805 41.0101 87.4805 39.9354C87.4805 38.9697 87.8603 38.1538 88.6259 37.4972C89.3903 36.8359 90.5765 36.5052 92.1819 36.5052C93.7107 36.5052 94.8501 36.7568 95.5941 37.2528C96.3369 37.7524 96.8473 38.4881 97.1277 39.4657L94.3397 39.9785C94.2211 39.5448 93.9958 39.2105 93.6616 38.9805C93.3273 38.7468 92.8528 38.6318 92.2346 38.6318C91.4558 38.6318 90.8999 38.7397 90.5621 38.9589C90.3392 39.1135 90.2278 39.3147 90.2278 39.558C90.2278 39.7712 90.3248 39.9461 90.5213 40.0947C90.7873 40.2912 91.7074 40.568 93.2842 40.9274C94.8573 41.2832 95.9559 41.7218 96.5814 42.2417C97.1996 42.7701 97.5087 43.5033 97.5087 44.4391C97.5087 45.4634 97.0809 46.3464 96.2219 47.0833C95.3665 47.8201 94.1037 48.1855 92.4263 48.1855C90.9035 48.1855 89.6994 47.8764 88.8092 47.2594C87.9214 46.646 87.3439 45.8049 87.0708 44.7446V44.7446ZM98.3366 42.1878C98.3366 41.2078 98.581 40.2565 99.0614 39.3363C99.5479 38.4198 100.232 37.7165 101.12 37.2348C102.008 36.7496 102.998 36.5052 104.093 36.5052C105.782 36.5052 107.168 37.0551 108.25 38.1538C109.33 39.2536 109.868 40.6399 109.868 42.3172C109.868 44.0053 109.324 45.4059 108.235 46.519C107.143 47.6332 105.771 48.1855 104.115 48.1855C103.088 48.1855 102.114 47.9555 101.184 47.493C100.254 47.0294 99.5479 46.35 99.0614 45.4562C98.581 44.5625 98.3366 43.4734 98.3366 42.1878V42.1878ZM101.368 42.346C101.368 43.4566 101.63 44.3037 102.159 44.892C102.682 45.4814 103.333 45.7761 104.104 45.7761C104.877 45.7761 105.523 45.4814 106.044 44.892C106.569 44.3037 106.83 43.4482 106.83 42.3244C106.83 41.2329 106.569 40.3883 106.044 39.8C105.523 39.2105 104.877 38.917 104.104 38.917C103.333 38.917 102.682 39.2105 102.159 39.8C101.63 40.3883 101.368 41.2401 101.368 42.346ZM120.855 40.0648L117.939 40.5896C117.842 40.0073 117.619 39.5699 117.27 39.2752C116.922 38.9805 116.474 38.8331 115.92 38.8331C115.181 38.8331 114.595 39.0883 114.156 39.5951C113.718 40.1043 113.499 40.9562 113.499 42.1483C113.499 43.4734 113.721 44.4115 114.167 44.9578C114.613 45.503 115.208 45.7761 115.96 45.7761C116.524 45.7761 116.98 45.618 117.339 45.2981C117.698 44.9782 117.95 44.4295 118.097 43.6531L121.002 44.1455C120.7 45.4778 120.118 46.4866 119.264 47.1659C118.408 47.8489 117.263 48.1855 115.823 48.1855C114.189 48.1855 112.885 47.6728 111.915 46.6412C110.942 45.6108 110.457 44.1814 110.457 42.3567C110.457 40.514 110.945 39.0776 111.918 38.0496C112.896 37.0192 114.214 36.5052 115.877 36.5052C117.239 36.5052 118.32 36.8011 119.124 37.3858C119.924 37.9705 120.503 38.8655 120.855 40.0648V40.0648ZM122.021 35.2448V32.5083H124.978V35.2448H122.021ZM122.021 47.934V36.7604H124.978V47.934H122.021ZM129.142 40.169L126.459 39.685C126.76 38.6043 127.278 37.8063 128.014 37.2864C128.754 36.7676 129.847 36.5052 131.297 36.5052C132.619 36.5052 133.599 36.6633 134.245 36.976C134.89 37.2887 135.345 37.6841 135.606 38.1646C135.87 38.6462 136.003 39.5268 136.003 40.8124L135.97 44.2641C135.97 45.2454 136.017 45.9703 136.114 46.4363C136.206 46.9012 136.387 47.4032 136.646 47.934H133.718C133.642 47.7375 133.545 47.4463 133.434 47.0617C133.387 46.8868 133.351 46.7706 133.33 46.7131C132.823 47.2055 132.285 47.5709 131.71 47.8201C131.135 48.0645 130.521 48.1855 129.867 48.1855C128.718 48.1855 127.81 47.8729 127.149 47.2522C126.484 46.6268 126.153 45.8373 126.153 44.8812C126.153 44.2534 126.304 43.6891 126.606 43.193C126.908 42.6982 127.332 42.3208 127.875 42.0596C128.416 41.796 129.203 41.5672 130.227 41.3683C131.606 41.1107 132.565 40.8663 133.097 40.6434V40.3487C133.097 39.7784 132.957 39.3759 132.677 39.1314C132.396 38.8906 131.868 38.7684 131.088 38.7684C130.561 38.7684 130.152 38.8727 129.856 39.0811C129.563 39.2848 129.324 39.6478 129.142 40.169V40.169ZM133.097 42.5688C132.719 42.6946 132.12 42.8444 131.297 43.0205C130.478 43.1978 129.943 43.3691 129.689 43.5357C129.304 43.8112 129.11 44.1563 129.11 44.5769C129.11 44.9938 129.264 45.3484 129.574 45.6504C129.883 45.9523 130.273 46.1032 130.751 46.1032C131.286 46.1032 131.793 45.9271 132.278 45.5785C132.637 45.3125 132.87 44.9854 132.982 44.5984C133.06 44.3468 133.097 43.8652 133.097 43.1571V42.5688V42.5688ZM142.966 36.7604V39.1171H140.946V43.6208C140.946 44.5325 140.965 45.0645 141.004 45.2154C141.043 45.3664 141.131 45.4886 141.267 45.5893C141.403 45.6863 141.571 45.7366 141.766 45.7366C142.042 45.7366 142.437 45.6396 142.958 45.4527L143.209 47.7446C142.519 48.0394 141.744 48.1855 140.872 48.1855C140.34 48.1855 139.858 48.0957 139.432 47.9195C139.004 47.741 138.691 47.5074 138.49 47.2247C138.289 46.9395 138.152 46.5549 138.073 46.0709C138.012 45.7294 137.98 45.0321 137.98 43.9874V39.1171H136.622V36.7604H137.98V34.5367L140.946 32.8138V36.7604H142.966V36.7604ZM150.413 44.3792L153.362 44.8704C152.981 45.9523 152.386 46.7742 151.566 47.3385C150.75 47.9052 149.727 48.1855 148.499 48.1855C146.556 48.1855 145.119 47.5541 144.185 46.2829C143.449 45.2657 143.079 43.9802 143.079 42.4322C143.079 40.5788 143.563 39.1279 144.533 38.0795C145.499 37.0312 146.723 36.5052 148.203 36.5052C149.867 36.5052 151.178 37.0551 152.141 38.1538C153.1 39.2536 153.558 40.9346 153.519 43.2014H146.11C146.133 44.0772 146.369 44.7589 146.825 45.2454C147.282 45.733 147.852 45.9774 148.531 45.9774C148.995 45.9774 149.382 45.8516 149.698 45.6C150.014 45.3448 150.255 44.9387 150.413 44.3792V44.3792ZM150.582 41.3899C150.56 40.532 150.34 39.8815 149.921 39.437C149.501 38.9913 148.987 38.7684 148.384 38.7684C147.737 38.7684 147.206 39.0056 146.786 39.4765C146.365 39.9438 146.157 40.5824 146.164 41.3899H150.582V41.3899ZM165.101 47.934H162.357V46.2937C161.901 46.9323 161.363 47.4068 160.741 47.7195C160.119 48.0322 159.495 48.1855 158.863 48.1855C157.577 48.1855 156.478 47.6692 155.562 46.6352C154.65 45.6 154.19 44.1563 154.19 42.3064C154.19 40.4098 154.636 38.9697 155.526 37.9861C156.417 37.0012 157.545 36.5052 158.906 36.5052C160.153 36.5052 161.234 37.0264 162.145 38.0652V32.5083H165.101V47.934V47.934ZM157.21 42.1051C157.21 43.2973 157.376 44.1599 157.706 44.6943C158.18 45.4634 158.848 45.8516 159.704 45.8516C160.385 45.8516 160.964 45.5605 161.442 44.9818C161.915 44.4043 162.156 43.5381 162.156 42.3891C162.156 41.1071 161.922 40.1798 161.464 39.6167C161 39.0524 160.407 38.7684 159.682 38.7684C158.981 38.7684 158.396 39.0488 157.922 39.6059C157.449 40.163 157.21 40.9957 157.21 42.1051ZM172.95 47.934V32.5083H177.946C179.839 32.5083 181.074 32.5874 181.648 32.7419C182.532 32.972 183.276 33.474 183.872 34.2504C184.467 35.0255 184.767 36.0284 184.767 37.2528C184.767 38.2005 184.594 38.9985 184.249 39.6418C183.904 40.2876 183.47 40.7944 182.938 41.1646C182.41 41.5312 181.871 41.7745 181.325 41.8931C180.583 42.0404 179.505 42.1159 178.093 42.1159H176.064V47.934H172.95ZM176.064 35.119V39.4945H177.766C178.994 39.4945 179.816 39.4154 180.23 39.2536C180.643 39.0919 180.965 38.8403 181.204 38.4952C181.437 38.1514 181.555 37.7524 181.555 37.2959C181.555 36.7352 181.391 36.2728 181.06 35.9062C180.733 35.5431 180.312 35.3131 179.809 35.2232C179.436 35.1513 178.689 35.119 177.569 35.119H176.064ZM189.057 47.934H186.1V36.7604H188.845V38.3491C189.316 37.5979 189.739 37.1019 190.114 36.8646C190.49 36.6286 190.913 36.5052 191.391 36.5052C192.067 36.5052 192.713 36.6933 193.338 37.0671L192.423 39.6418C191.927 39.3207 191.464 39.1602 191.035 39.1602C190.62 39.1602 190.271 39.2716 189.983 39.5017C189.692 39.7269 189.469 40.1402 189.305 40.7369C189.14 41.3324 189.057 42.5832 189.057 44.4834V47.934V47.934ZM200.007 44.3792L202.955 44.8704C202.574 45.9523 201.979 46.7742 201.159 47.3385C200.345 47.9052 199.32 48.1855 198.092 48.1855C196.149 48.1855 194.712 47.5541 193.778 46.2829C193.042 45.2657 192.672 43.9802 192.672 42.4322C192.672 40.5788 193.157 39.1279 194.126 38.0795C195.092 37.0312 196.318 36.5052 197.797 36.5052C199.46 36.5052 200.771 37.0551 201.734 38.1538C202.693 39.2536 203.153 40.9346 203.113 43.2014H195.704C195.725 44.0772 195.962 44.7589 196.418 45.2454C196.874 45.733 197.445 45.9774 198.124 45.9774C198.588 45.9774 198.975 45.8516 199.291 45.6C199.608 45.3448 199.849 44.9387 200.007 44.3792V44.3792ZM200.176 41.3899C200.153 40.532 199.934 39.8815 199.514 39.437C199.094 38.9913 198.581 38.7684 197.977 38.7684C197.33 38.7684 196.799 39.0056 196.379 39.4765C195.958 39.9438 195.751 40.5824 195.757 41.3899H200.176V41.3899ZM203.407 44.7446L206.373 44.2929C206.499 44.8668 206.753 45.3053 207.141 45.6036C207.526 45.902 208.065 46.0529 208.761 46.0529C209.527 46.0529 210.102 45.9127 210.485 45.6288C210.748 45.4347 210.877 45.1687 210.877 44.8428C210.877 44.6164 210.805 44.4295 210.665 44.2821C210.518 44.1419 210.187 44.0125 209.677 43.8939C207.292 43.3692 205.78 42.8887 205.142 42.4538C204.258 41.85 203.815 41.0101 203.815 39.9354C203.815 38.9697 204.196 38.1538 204.962 37.4972C205.726 36.8359 206.913 36.5052 208.518 36.5052C210.047 36.5052 211.186 36.7568 211.93 37.2528C212.673 37.7524 213.183 38.4881 213.463 39.4657L210.676 39.9785C210.557 39.5448 210.331 39.2105 209.998 38.9805C209.663 38.7468 209.189 38.6318 208.571 38.6318C207.792 38.6318 207.235 38.7397 206.898 38.9589C206.674 39.1135 206.564 39.3147 206.564 39.558C206.564 39.7712 206.661 39.9461 206.857 40.0947C207.123 40.2912 208.044 40.568 209.619 40.9274C211.193 41.2832 212.292 41.7218 212.918 42.2417C213.535 42.7701 213.844 43.5033 213.844 44.4391C213.844 45.4634 213.417 46.3464 212.558 47.0833C211.703 47.8201 210.439 48.1855 208.761 48.1855C207.24 48.1855 206.036 47.8764 205.145 47.2594C204.258 46.646 203.68 45.8049 203.407 44.7446" fill="#C6C6C6"></path></svg>