<svg xmlns="http://www.w3.org/2000/svg" width="225" height="80" viewBox="0 0 225 80" fill="none"><g clip-path="url(#clip0_961_2438)"><path d="M197.714 28.1905C197.714 25.981 198.4 25.219 199.543 25.219C200.686 25.219 201.6 25.6762 202.667 28.1905L209.143 42.8952V52.1905C209.143 54.4 208.229 55.0095 205.714 55.3143V55.9238H217.676V55.3143C215.086 55.0095 214.248 54.3238 214.248 52.1905V42.8952L220.495 28.7238C221.714 25.981 222.933 25.3714 224.762 25.0667V24.4571H216V25.0667C218.971 25.3714 220.038 26.2095 219.2 28.1905L213.714 40.7619L208.076 27.8857C207.314 26.1333 207.771 25.6 211.048 25.1429V24.5333H192.229V25.1429C195.2 25.6 196.114 26.1333 196.114 28.2667V45.4857L182.324 24.5333H175.543V25.1429C177.752 25.4476 178.438 26.1333 178.438 28.2667V52.2667C178.438 54.4762 177.829 55.2381 177.067 55.2381C176.381 55.2381 176 54.9333 175.01 52.2667L164.8 24.381H164.19L154.362 51.0476C153.295 54.019 151.619 55.0095 149.943 55.3905V56H158.933V55.3905C155.81 55.0857 154.819 53.8667 155.505 51.8857L157.714 45.7905H167.01L169.143 51.5048C170.057 54.0952 169.524 54.8571 166.857 55.3143V55.9238H183.924V55.3143C180.952 54.8571 180.038 54.3238 180.038 52.1905V30.7048L196.724 56H197.714V28.1905ZM77.4095 40.1524C77.4095 30.4 82.0571 25.2952 87.4667 25.2952C90.6667 25.2952 92.7238 25.981 93.9429 27.2762C94.8571 28.1905 95.5429 29.4857 96.3048 31.5429H96.9143V24.9905C93.7905 24.381 90.9714 24 88.1524 24C80 24 71.5429 29.2571 71.5429 40.1524C71.5429 51.0476 80 56.3048 87.619 56.3048C90.9714 56.3048 93.9429 55.7714 96.7619 54.9333L97.6762 48.7619L97.1429 48.6095C96.4571 49.9048 95.6191 51.0476 94.7048 52.0381C92.7238 54.019 90.0571 55.0857 87.3905 55.0857C82.2095 55.0095 77.4095 50.0571 77.4095 40.1524ZM144.99 41.0667C144.305 41.0667 143.39 40.9905 142.476 40.8381V25.6H144.99C149.181 25.6 151.01 27.8095 151.01 33.2952C151.01 38.8571 149.105 41.0667 144.99 41.0667ZM47.0857 24.4571V32H47.6952C48.6095 27.2 50.5143 25.6762 53.7143 25.6762H55.2381V52.1905C55.2381 54.4 54.3238 55.0095 51.8095 55.3143V55.9238H63.7714V55.3143C61.181 55.0095 60.3429 54.3238 60.3429 52.1905V25.6H61.8667C65.0667 25.6 66.9714 27.1238 67.8857 31.9238H68.4952V24.381H47.0857V24.4571ZM37.5619 56.3048C42.7429 56.3048 48.2286 53.3333 48.2286 47.2381C48.2286 43.6571 46.3238 40.6857 42.9714 38.8571L37.0286 35.581C33.9048 33.8286 32.9905 32.2286 32.9905 29.9429C32.9905 27.3524 34.8952 25.2952 38.4762 25.2952C40.2286 25.2952 41.5238 25.7524 42.5905 26.7429C43.5048 27.6571 44.419 29.181 45.2571 31.9238H45.7905V24.9905C43.6571 24.381 41.4476 24 38.8571 24C33.7524 24 29.9429 27.2 29.9429 32.6095C29.9429 36.0381 31.8476 39.1619 34.9714 40.9905L40.4571 44.0381C43.581 45.7905 44.5714 47.4667 44.5714 49.981C44.5714 52.9524 41.5238 55.0857 38.1714 55.0857C35.9619 55.0857 34.1333 54.3238 32.8381 53.0286C32 52.1905 31.0857 50.8952 30.4762 49.219H34.0571V48.6095C33.0667 48.381 32.4571 48.2286 31.619 46.2476L24.6095 29.5619H24L17.1429 45.8667C16.2286 48.0762 15.619 48.4571 14.5524 48.6095V49.219H20.6476V48.6095C18.4381 48.381 17.8286 47.3143 18.3619 45.9429L19.4286 43.3524H25.6L26.9714 46.5524C27.581 48 26.6667 48.381 24.4571 48.5333V49.1429H29.3333V55.1619C31.7714 55.8476 34.8952 56.3048 37.5619 56.3048ZM114.971 56L124.038 30.781L124.724 52.2667C124.8 54.4 123.962 55.0095 121.371 55.3143V55.9238H146.362V55.3143C143.39 54.8571 142.476 54.3238 142.476 52.1905V42.0571C143.467 42.2095 144.457 42.2857 145.219 42.2857C151.238 42.2857 156.419 40.0762 156.419 33.3714C156.419 26.6667 151.238 24.4571 145.219 24.4571H134.476V25.0667C136.686 25.3714 137.371 26.0571 137.371 28.1905V52.1905C137.371 54.4 136.457 55.3143 133.943 55.3143H133.867C131.2 55.3143 130.057 54.3238 129.981 52.2667L129.067 28.2667C128.99 26.0571 129.752 25.3714 132.114 25.0667V24.4571H124.724L116.648 47.0857L108.571 24.4571H100.648V25.0667C103.01 25.3714 103.771 26.1333 103.695 28.2667L102.857 51.2762C102.781 53.5619 101.562 54.9333 99.3524 55.3143V55.9238H107.733V55.3143C105.6 55.0095 104.381 53.6381 104.457 51.2762L105.143 30.3238L114.362 55.9238L114.971 56ZM90.6667 49.3714C94.7048 49.3714 99.8857 45.7905 99.8857 40.1524C99.8857 34.5905 94.781 30.9333 90.6667 30.9333C86.6286 30.9333 81.4476 34.5143 81.4476 40.1524C81.4476 45.7143 86.5524 49.3714 90.6667 49.3714ZM90.6667 32.2286C93.2571 32.2286 95.0095 34.3619 95.0095 40.1524C95.0095 46.019 93.181 48.0762 90.6667 48.0762C88.0762 48.0762 86.3238 45.9429 86.3238 40.1524C86.3238 34.2857 88.0762 32.2286 90.6667 32.2286ZM166.629 44.4952H158.171L162.362 32.9143L166.629 44.4952ZM25.219 42.1333H20.0381L22.6286 35.8095L25.219 42.1333ZM15.3143 43.7333H15.9238V34.2857H15.3143C14.3238 37.6381 13.3333 38.4 11.5048 38.4H8V25.6H13.5619C16.7619 25.6 18.6667 27.1238 19.581 31.9238H20.1905V24.381H0V24.9905C2.20952 25.2952 2.89524 25.981 2.89524 28.1143V52.1143C2.89524 54.3238 2.20952 54.9333 0 55.2381V55.8476H11.8857V55.2381C8.91429 54.781 8 54.2476 8 52.1143V39.5429H11.5048C13.2571 39.619 14.3238 40.381 15.3143 43.7333Z" fill="#BBBBBB"></path></g><defs><clipPath id="clip0_961_2438"><rect width="224.762" height="32" fill="white" transform="translate(0 24)"></rect></clipPath></defs></svg>